<mxfile host="app.diagrams.net" agent="Mozilla/5.0 (Windows NT 10.0; Win64; x64) AppleWebKit/537.36 (KHTML, like Gecko) Chrome/133.0.0.0 Safari/537.36" version="26.0.14">
  <diagram name="Trang-1" id="GTQOsd20d7c1GDsLRml3">
    <mxGraphModel dx="1562" dy="1923" grid="1" gridSize="10" guides="1" tooltips="1" connect="1" arrows="1" fold="1" page="1" pageScale="1" pageWidth="827" pageHeight="1169" math="0" shadow="0">
      <root>
        <mxCell id="0" />
        <mxCell id="1" parent="0" />
        <mxCell id="OtgaGcX6USIXBe_UyIpP-1" value="patients" style="whiteSpace=wrap;html=1;align=center;" vertex="1" parent="1">
          <mxGeometry x="160" y="120" width="100" height="40" as="geometry" />
        </mxCell>
        <mxCell id="OtgaGcX6USIXBe_UyIpP-2" value="docters" style="whiteSpace=wrap;html=1;align=center;" vertex="1" parent="1">
          <mxGeometry x="560" y="360" width="100" height="40" as="geometry" />
        </mxCell>
        <mxCell id="OtgaGcX6USIXBe_UyIpP-3" value="appointments" style="whiteSpace=wrap;html=1;align=center;" vertex="1" parent="1">
          <mxGeometry x="560" y="120" width="100" height="40" as="geometry" />
        </mxCell>
        <mxCell id="OtgaGcX6USIXBe_UyIpP-4" value="prepscriptions" style="whiteSpace=wrap;html=1;align=center;" vertex="1" parent="1">
          <mxGeometry x="560" y="-120" width="100" height="40" as="geometry" />
        </mxCell>
        <mxCell id="OtgaGcX6USIXBe_UyIpP-9" value="" style="edgeStyle=orthogonalEdgeStyle;rounded=0;orthogonalLoop=1;jettySize=auto;html=1;" edge="1" parent="1" source="OtgaGcX6USIXBe_UyIpP-5" target="OtgaGcX6USIXBe_UyIpP-3">
          <mxGeometry relative="1" as="geometry" />
        </mxCell>
        <mxCell id="OtgaGcX6USIXBe_UyIpP-5" value="có" style="shape=rhombus;perimeter=rhombusPerimeter;whiteSpace=wrap;html=1;align=center;" vertex="1" parent="1">
          <mxGeometry x="350" y="110" width="120" height="60" as="geometry" />
        </mxCell>
        <mxCell id="OtgaGcX6USIXBe_UyIpP-10" value="" style="edgeStyle=orthogonalEdgeStyle;rounded=0;orthogonalLoop=1;jettySize=auto;html=1;" edge="1" parent="1" source="OtgaGcX6USIXBe_UyIpP-6" target="OtgaGcX6USIXBe_UyIpP-3">
          <mxGeometry relative="1" as="geometry" />
        </mxCell>
        <mxCell id="OtgaGcX6USIXBe_UyIpP-6" value="có" style="shape=rhombus;perimeter=rhombusPerimeter;whiteSpace=wrap;html=1;align=center;" vertex="1" parent="1">
          <mxGeometry x="550" y="220" width="120" height="60" as="geometry" />
        </mxCell>
        <mxCell id="OtgaGcX6USIXBe_UyIpP-7" value="" style="endArrow=none;html=1;rounded=0;entryX=0;entryY=0.5;entryDx=0;entryDy=0;" edge="1" parent="1" target="OtgaGcX6USIXBe_UyIpP-5">
          <mxGeometry relative="1" as="geometry">
            <mxPoint x="260" y="139.5" as="sourcePoint" />
            <mxPoint x="310" y="139.5" as="targetPoint" />
          </mxGeometry>
        </mxCell>
        <mxCell id="OtgaGcX6USIXBe_UyIpP-8" value="" style="endArrow=none;html=1;rounded=0;exitX=0.5;exitY=0;exitDx=0;exitDy=0;" edge="1" parent="1" source="OtgaGcX6USIXBe_UyIpP-2">
          <mxGeometry relative="1" as="geometry">
            <mxPoint x="609.5" y="330" as="sourcePoint" />
            <mxPoint x="609.5" y="280" as="targetPoint" />
          </mxGeometry>
        </mxCell>
        <mxCell id="OtgaGcX6USIXBe_UyIpP-11" value="1" style="text;html=1;align=center;verticalAlign=middle;resizable=0;points=[];autosize=1;strokeColor=none;fillColor=none;" vertex="1" parent="1">
          <mxGeometry x="605" y="318" width="30" height="30" as="geometry" />
        </mxCell>
        <mxCell id="OtgaGcX6USIXBe_UyIpP-12" value="n" style="text;html=1;align=center;verticalAlign=middle;resizable=0;points=[];autosize=1;strokeColor=none;fillColor=none;" vertex="1" parent="1">
          <mxGeometry x="605" y="178" width="30" height="30" as="geometry" />
        </mxCell>
        <mxCell id="OtgaGcX6USIXBe_UyIpP-13" value="1" style="text;html=1;align=center;verticalAlign=middle;resizable=0;points=[];autosize=1;strokeColor=none;fillColor=none;" vertex="1" parent="1">
          <mxGeometry x="285" y="108" width="30" height="30" as="geometry" />
        </mxCell>
        <mxCell id="OtgaGcX6USIXBe_UyIpP-14" value="n" style="text;html=1;align=center;verticalAlign=middle;resizable=0;points=[];autosize=1;strokeColor=none;fillColor=none;" vertex="1" parent="1">
          <mxGeometry x="495" y="108" width="30" height="30" as="geometry" />
        </mxCell>
        <mxCell id="OtgaGcX6USIXBe_UyIpP-18" value="" style="edgeStyle=orthogonalEdgeStyle;rounded=0;orthogonalLoop=1;jettySize=auto;html=1;" edge="1" parent="1" source="OtgaGcX6USIXBe_UyIpP-15" target="OtgaGcX6USIXBe_UyIpP-4">
          <mxGeometry relative="1" as="geometry" />
        </mxCell>
        <mxCell id="OtgaGcX6USIXBe_UyIpP-15" value="có" style="shape=rhombus;perimeter=rhombusPerimeter;whiteSpace=wrap;html=1;align=center;" vertex="1" parent="1">
          <mxGeometry x="550" y="-20" width="120" height="60" as="geometry" />
        </mxCell>
        <mxCell id="OtgaGcX6USIXBe_UyIpP-16" value="" style="endArrow=none;html=1;rounded=0;entryX=0.5;entryY=0;entryDx=0;entryDy=0;" edge="1" parent="1" target="OtgaGcX6USIXBe_UyIpP-3">
          <mxGeometry relative="1" as="geometry">
            <mxPoint x="609.5" y="40" as="sourcePoint" />
            <mxPoint x="609.5" y="90" as="targetPoint" />
          </mxGeometry>
        </mxCell>
        <mxCell id="OtgaGcX6USIXBe_UyIpP-17" value="1" style="text;html=1;align=center;verticalAlign=middle;resizable=0;points=[];autosize=1;strokeColor=none;fillColor=none;" vertex="1" parent="1">
          <mxGeometry x="605" y="78" width="30" height="30" as="geometry" />
        </mxCell>
        <mxCell id="OtgaGcX6USIXBe_UyIpP-19" value="1" style="text;html=1;align=center;verticalAlign=middle;resizable=0;points=[];autosize=1;strokeColor=none;fillColor=none;" vertex="1" parent="1">
          <mxGeometry x="605" y="-62" width="30" height="30" as="geometry" />
        </mxCell>
      </root>
    </mxGraphModel>
  </diagram>
</mxfile>
